<svg xmlns="http://www.w3.org/2000/svg" width="150" height="90" viewBox="0 0 150 90"><rect width="100%" height="100%" fill="#DDDDDD"/><path fill="#999999" d="m37.47 42.295-.52.72q-.09.11-.17.17-.08.07-.24.07-.16 0-.3-.09-.14-.1-.34-.21-.2-.12-.48-.21-.28-.09-.68-.09-.52 0-.92.19-.39.18-.65.54-.26.35-.39.85-.12.5-.12 1.13 0 .66.14 1.17.14.51.4.86t.64.53q.38.18.85.18t.76-.12q.29-.12.49-.26t.35-.25q.15-.12.33-.12.24 0 .36.19l.57.72q-.33.38-.71.64-.38.26-.8.42-.41.15-.84.22-.44.06-.87.06-.76 0-1.43-.28-.68-.29-1.18-.83-.5-.55-.8-1.33-.29-.79-.29-1.8 0-.9.26-1.68.26-.77.77-1.33.5-.57 1.24-.89.75-.32 1.72-.32.92 0 1.61.3.69.3 1.24.85Zm4.95-1.15q.91 0 1.66.3.74.3 1.28.84.53.54.82 1.33.28.78.28 1.75 0 .98-.28 1.76-.29.78-.82 1.34-.54.55-1.28.84-.75.3-1.66.3-.92 0-1.68-.3-.75-.29-1.28-.84-.53-.56-.82-1.34-.3-.78-.3-1.76 0-.97.3-1.75.29-.79.82-1.33t1.28-.84q.76-.3 1.68-.3Zm0 6.94q1.02 0 1.51-.69t.49-2.01q0-1.33-.49-2.03-.49-.69-1.51-.69-1.04 0-1.54.7t-.5 2.02q0 1.32.5 2.01.5.69 1.54.69Zm7.53 1.4h-1.97v-8.21h1.2q.39 0 .51.36l.13.61q.21-.24.45-.44.23-.2.5-.34.27-.15.58-.23.31-.09.67-.09.78 0 1.28.42t.75 1.12q.19-.41.48-.7t.63-.48q.34-.18.73-.27.39-.09.78-.09.68 0 1.21.21.53.21.89.61t.55.98q.18.57.18 1.32v5.22h-1.97v-5.22q0-.79-.35-1.18-.34-.4-1-.4-.31 0-.57.1-.26.11-.45.3-.2.2-.31.5-.11.29-.11.68v5.22h-1.99v-5.22q0-.83-.33-1.2-.33-.38-.97-.38-.43 0-.81.21-.37.21-.69.58v6.01Zm11.49-8.21h1.98v8.21h-1.98v-8.21Zm2.26-2.39q0 .26-.11.48-.1.22-.27.39-.18.17-.41.27-.23.1-.49.1t-.49-.1q-.23-.1-.39-.27-.17-.17-.27-.39t-.1-.48q0-.26.1-.5.1-.23.27-.4.16-.16.39-.26t.49-.1q.26 0 .49.1.23.1.41.26.17.17.27.4.11.24.11.5Zm3.45 2.75.14.65q.25-.25.52-.46.28-.21.59-.36.3-.15.66-.23.35-.09.76-.09.68 0 1.2.23.52.23.86.64.35.41.53.99.18.57.18 1.26v5.22h-1.97v-5.22q0-.76-.35-1.17-.34-.41-1.05-.41-.51 0-.96.23-.44.23-.84.63v5.94h-1.98v-8.21h1.21q.38 0 .5.36Zm10.31 3.55q.37 0 .64-.1.28-.1.46-.28.18-.18.27-.42.09-.25.09-.55 0-.61-.36-.96-.37-.36-1.1-.36-.72 0-1.09.36-.36.35-.36.96 0 .29.09.54.09.25.27.43.18.18.46.28.27.1.63.1Zm2.24 4.67q0-.24-.15-.39-.14-.16-.39-.24-.25-.08-.58-.12-.33-.04-.7-.06l-.77-.04q-.4-.02-.77-.06-.33.18-.54.43-.2.25-.2.57 0 .22.11.41.11.19.34.32.24.14.61.21.38.08.92.08.56 0 .96-.08.4-.09.66-.24.26-.14.38-.35.12-.2.12-.44Zm-.4-8.3h2.36v.74q0 .35-.42.43l-.74.14q.17.42.17.92 0 .61-.24 1.1-.25.5-.68.84-.43.34-1.02.53-.59.19-1.27.19-.24 0-.46-.02-.22-.03-.44-.07-.38.23-.38.52 0 .25.22.37.23.11.61.16.37.05.85.06.48.01.99.05.5.04.98.14t.86.32q.37.21.6.59.23.37.23.95 0 .55-.27 1.06t-.77.91q-.51.4-1.25.64-.74.25-1.69.25-.92 0-1.61-.18-.69-.18-1.15-.48-.45-.3-.68-.69-.22-.4-.22-.82 0-.58.35-.96.35-.39.95-.62-.32-.17-.52-.45-.19-.28-.19-.74 0-.18.07-.38.07-.19.2-.39.13-.19.33-.36.2-.17.47-.31-.62-.33-.98-.89-.35-.56-.35-1.32 0-.6.24-1.1.25-.49.68-.84.44-.34 1.03-.53.6-.18 1.3-.18.53 0 1 .11.46.1.84.31Zm12.96.61-.45.71q-.08.13-.17.18-.09.05-.22.05-.15 0-.31-.08l-.38-.18q-.22-.1-.49-.18-.28-.08-.66-.08-.58 0-.91.25-.33.25-.33.65 0 .26.17.44t.45.32q.29.14.65.24.36.11.73.24t.73.29q.36.17.65.42.28.25.45.6.17.35.17.85 0 .59-.21 1.09-.21.5-.63.87-.41.36-1.02.56-.62.21-1.42.21-.42 0-.82-.08-.41-.07-.78-.21-.37-.14-.69-.32-.31-.18-.55-.4l.45-.75q.09-.14.21-.21.12-.07.3-.07.19 0 .35.1.17.11.38.23.22.12.51.22.29.1.74.1.35 0 .6-.08.26-.08.42-.22.16-.14.24-.32.08-.18.08-.37 0-.29-.18-.47-.17-.18-.45-.32-.29-.14-.65-.24-.36-.11-.74-.24t-.75-.3q-.36-.17-.65-.44-.28-.26-.45-.64-.17-.39-.17-.93 0-.51.2-.96.2-.46.58-.8.39-.34.97-.54.58-.21 1.34-.21.85 0 1.55.28.69.28 1.16.74Zm5.2-1.02q.92 0 1.66.3.75.3 1.28.84.54.54.82 1.33.29.78.29 1.75 0 .98-.29 1.76-.28.78-.82 1.34-.53.55-1.28.84-.74.3-1.66.3-.92 0-1.67-.3-.75-.29-1.28-.84-.53-.56-.83-1.34-.29-.78-.29-1.76 0-.97.29-1.75.3-.79.83-1.33t1.28-.84q.75-.3 1.67-.3Zm0 6.94q1.03 0 1.52-.69t.49-2.01q0-1.33-.49-2.03-.49-.69-1.52-.69-1.04 0-1.54.7t-.5 2.02q0 1.32.5 2.01.5.69 1.54.69Zm9.2-6.94q.91 0 1.66.3.74.3 1.28.84.53.54.82 1.33.28.78.28 1.75 0 .98-.28 1.76-.29.78-.82 1.34-.54.55-1.28.84-.75.3-1.66.3-.92 0-1.68-.3-.75-.29-1.28-.84-.53-.56-.82-1.34-.3-.78-.3-1.76 0-.97.3-1.75.29-.79.82-1.33t1.28-.84q.76-.3 1.68-.3Zm0 6.94q1.02 0 1.51-.69t.49-2.01q0-1.33-.49-2.03-.49-.69-1.51-.69-1.04 0-1.54.7t-.5 2.02q0 1.32.5 2.01.5.69 1.54.69Zm7.27-6.45.13.65q.25-.25.53-.46.27-.21.58-.36.31-.15.66-.23.35-.09.77-.09.67 0 1.19.23.52.23.87.64.35.41.53.99.18.57.18 1.26v5.22h-1.98v-5.22q0-.76-.34-1.17-.35-.41-1.05-.41-.51 0-.96.23-.45.23-.85.63v5.94h-1.97v-8.21h1.2q.39 0 .51.36Z"/></svg>